PathFileType	3	(X/Y/Z)	C:\Users\koon_\Desktop\
DataRate	CameraRate	NumFrames	NumMarkers	Units	OrigDataRate	OrigDataStartFrame	OrigNumFrames
100.0	100.0	12	27	mm	100.0	2840	3786	
Frame#	Time	get:LFHD			get:RFHD			get:LBHD			get:RBHD			get:C7			get:T10			get:CLAV			get:STRN			get:RBAK			get:LSHO			get:LUPA			get:LELB			get:LFRA			get:LWRA			get:LWRB			get:LFIN			get:RSHO			get:RUPA			get:RELB			get:RFRA			get:RWRA			get:RWRB			get:RFIN			get:LASI			get:RASI			get:LPSI			get:RPSI			
		X1	Y1	Z1	X2	Y2	Z2	X3	Y3	Z3	X4	Y4	Z4	X5	Y5	Z5	X6	Y6	Z6	X7	Y7	Z7	X8	Y8	Z8	X9	Y9	Z9	X10	Y10	Z10	X11	Y11	Z11	X12	Y12	Z12	X13	Y13	Z13	X14	Y14	Z14	X15	Y15	Z15	X16	Y16	Z16	X17	Y17	Z17	X18	Y18	Z18	X19	Y19	Z19	X20	Y20	Z20	X21	Y21	Z21	X22	Y22	Z22	X23	Y23	Z23	X24	Y24	Z24	X25	Y25	Z25	X26	Y26	Z26	X27	Y27	Z27	
2840	28.39	38.634857	1578.6604	-71.664093	-109.14713	1526.314	-83.274063	39.375854	1587.8153	-196.67548	-81.134285	1558.1279	-222.15048	26.71377	1370.0918	-269.94199	55.945	1125.4558	-270.12912	20.703636	1318.9674	-74.207031	50.623383	1137.514	-14.652818	-41.137527	1299.2839	-292.284	142.10289	1412.9233	-185.27867	263.32791	1428.6824	-143.0005	417.21954	1422.3887	-66.193588	420.08582	1509.2594	27.490568	449.27695	1546.3049	109.18963	511.97083	1533.3032	82.626526	521.11517	1607.4209	123.95561	-116.37923	1363.3606	-197.32484	-272.65799	1213.0905	-211.26501	-325.8313	1126.5293	-263.32635	-378.50381	1124.3279	-169.52979	-470.07666	1044.6422	-81.294075	-500.63687	1032.5597	-148.43579	-545.22961	1056.2953	-81.063034	177.5927	930.64154	-71.655052	-97.841461	920.22247	-82.135185	100.30055	959.3147	-271.99219	-6.6528091	946.94507	-276.59833
2841	28.4	37.39608	1578.1276	-70.933746	-110.00603	1525.4178	-84.166489	38.433628	1587.787	-195.86948	-81.988457	1557.9813	-221.69742	25.621286	1369.7496	-270.02502	56.760727	1126.0698	-269.94586	19.759842	1318.9701	-74.221336	50.869865	1137.8989	-14.314322	-41.777927	1297.9614	-292.18362	137.68274	1414.1387	-186.248	256.99234	1436.6727	-144.35658	410.23517	1440.5114	-67.402222	406.711	1529.3182	25.00186	431.90063	1569.947	106.62659	495.6322	1560.8191	81.438766	498.67984	1636.5009	121.81216	-118.08971	1361.6353	-197.33821	-270.10501	1205.4059	-207.46727	-320.61285	1117.6805	-263.17987	-373.74045	1110.3483	-169.76004	-461.29697	1022.5992	-84.816658	-490.71451	1010.957	-152.49344	-537.18762	1029.3855	-85.060555	177.55583	930.76941	-71.682732	-97.841087	920.19836	-82.359299	100.46482	959.59882	-271.98059	-6.4226146	947.13593	-276.82394
2842	28.41	36.246597	1577.5359	-70.050972	-111.04996	1524.618	-83.869507	37.589111	1587.6824	-194.89479	-82.692116	1557.8193	-221.22711	24.504604	1369.4219	-270.18713	57.42144	1126.8232	-269.76019	18.89257	1318.9358	-74.325203	51.131802	1138.3367	-13.826064	-42.405949	1296.7664	-292.00372	133.30746	1415.2534	-187.38089	250.49725	1444.2831	-145.82552	402.48398	1458.2814	-68.880287	392.52759	1548.446	22.193504	413.6716	1592.3667	103.21705	478.15317	1587.2908	79.274651	474.94955	1663.9486	118.94477	-119.48285	1359.9658	-197.40601	-267.7327	1198.1735	-206.89395	-314.94327	1108.9174	-262.75882	-368.29782	1096.8348	-170.23228	-451.5527	1001.5374	-88.867676	-479.88596	990.81293	-157.3051	-527.91583	1003.4412	-89.205322	177.54132	930.91907	-71.795174	-97.861488	920.27887	-82.786293	100.63879	959.90601	-271.91824	-6.1491861	947.35315	-276.93063
2843	28.42	35.216908	1576.8466	-68.93364	-111.98395	1523.9099	-83.445297	36.885372	1587.5796	-193.79721	-83.269562	1557.8285	-220.84645	23.296108	1369.0601	-270.46121	58.023151	1127.6853	-269.57364	18.039677	1318.9708	-74.375732	51.386524	1138.7808	-13.446754	-43.097187	1295.7262	-291.80188	129.24687	1416.1727	-188.16682	243.72231	1451.561	-147.57265	393.94516	1475.5143	-70.485657	377.46146	1566.6556	18.84581	394.72549	1613.5051	99.058868	459.60406	1612.5756	75.9916	450.24893	1689.7977	115.26065	-120.75894	1358.2548	-197.48329	-264.84314	1191.1611	-206.91241	-308.97815	1101.1606	-262.90936	-361.65533	1083.7153	-170.60124	-440.93872	981.48663	-93.386276	-468.38837	971.52118	-162.34592	-517.61682	979.10657	-94.314163	177.52185	931.07123	-71.862167	-97.836014	920.35657	-83.150085	100.80962	960.19165	-271.80774	-5.9044323	947.6145	-277.03387
2844	28.43	34.191059	1576.1216	-67.778824	-113.1076	1523.2075	-81.905563	36.259827	1587.5948	-192.48376	-83.821495	1557.7517	-219.83582	22.14164	1368.8003	-270.72134	58.483757	1128.4512	-269.38705	17.28459	1319.0851	-74.419647	51.730091	1139.2872	-13.03609	-43.710194	1294.5393	-291.23306	125.23756	1417.2211	-189.11565	236.72302	1458.3104	-149.39461	384.62793	1492.0366	-72.391945	361.81061	1583.8054	14.648731	375.09174	1633.3904	94.222725	440.05319	1636.5537	71.774101	424.81262	1713.7866	110.8051	-122.11159	1356.459	-197.46431	-261.98669	1184.7592	-205.78601	-302.84259	1093.5658	-262.88879	-355.23645	1071.2817	-171.61612	-429.62619	962.57837	-98.325096	-456.86194	953.97076	-167.91829	-505.97675	956.03302	-98.935577	177.48778	931.26941	-71.946114	-97.818527	920.4917	-83.473221	101.00165	960.5047	-271.72156	-5.6351538	947.86536	-277.07806
2845	28.44	33.249355	1575.2374	-66.426056	-113.87222	1522.4054	-81.623558	35.629761	1587.6563	-191.0658	-84.313622	1557.858	-218.93228	20.822557	1368.5908	-270.80029	59.051342	1129.0188	-269.17273	16.616547	1319.0511	-75.195747	52.074825	1139.7841	-12.611287	-44.179806	1293.5261	-290.93323	121.37432	1418.0375	-189.70329	229.54828	1464.5946	-151.22276	374.4772	1507.6946	-74.617668	345.63367	1599.8978	9.8396273	354.88632	1651.923	88.777946	419.63177	1659.0767	66.806175	398.74063	1735.8506	106.11995	-123.56451	1354.572	-197.43692	-258.84897	1178.4532	-205.19209	-296.74997	1086.3881	-263.07391	-348.18591	1059.3022	-172.57178	-417.59613	944.70148	-103.4558	-444.7641	937.41492	-173.27055	-493.02621	934.30536	-102.69302	177.48961	931.46069	-72.041183	-97.723938	920.58356	-83.7686	101.14511	960.79767	-271.68201	-5.3298249	948.17096	-277.26947
2846	28.45	32.446972	1574.4071	-64.978127	-114.70246	1521.592	-80.660149	35.125561	1587.7864	-189.46106	-84.817612	1558.0815	-217.87544	19.593065	1368.5262	-270.77686	59.697277	1129.462	-268.99561	15.82781	1319.2405	-75.325096	52.519737	1140.3521	-12.345094	-44.572201	1292.7054	-290.66846	117.62784	1418.8085	-190.2113	222.32025	1470.4142	-153.25212	363.57895	1522.3671	-77.291359	328.98541	1614.7007	4.8159642	334.13614	1669.1604	82.757118	398.52191	1679.969	61.291088	372.13721	1756.3311	99.82338	-125.16486	1352.6558	-197.46313	-255.6319	1172.2859	-205.29636	-290.37842	1079.2446	-262.99432	-340.86929	1047.9077	-173.65424	-405.05386	927.91119	-108.69227	-432.358	922.25452	-178.68752	-479.96448	914.16187	-107.52956	177.54707	931.67975	-72.164848	-97.576248	920.67957	-84.023094	101.31606	961.06293	-271.72247	-5.1004786	948.34058	-277.40591
2847	28.46	31.692717	1573.5618	-63.271046	-115.32092	1520.7327	-80.240524	34.976517	1587.9305	-187.62485	-85.202042	1558.3866	-216.62683	18.401815	1368.4554	-270.69382	60.336693	1130.0042	-268.95117	15.169587	1319.4084	-75.389511	52.93742	1140.858	-11.954487	-44.991409	1291.7452	-290.38074	114.07117	1419.5895	-190.88399	214.98248	1475.7147	-155.34232	352.33792	1536.2151	-80.123146	312.64691	1628.2943	-0.62013763	312.99609	1685.024	76.290489	376.75424	1699.3182	55.244217	345.15808	1774.9668	92.645271	-126.74293	1350.8229	-197.53145	-252.56142	1166.2793	-204.79454	-283.78741	1072.1791	-263.21686	-333.18561	1037.0564	-174.83844	-392.11145	912.28784	-113.95663	-419.58963	908.08972	-183.93184	-466.483	895.31079	-113.0457	177.66292	931.94391	-72.283951	-97.463112	920.79089	-84.314117	101.46921	961.28619	-271.83344	-4.8896379	948.41156	-277.23288
2848	28.47	31.007107	1572.5958	-61.456173	-115.83056	1519.793	-79.922325	34.617485	1588.0951	-185.74738	-85.469803	1558.7512	-215.35561	17.209173	1368.2747	-270.40289	60.902809	1130.5804	-268.85052	14.389326	1319.5621	-75.529114	53.338287	1141.3998	-11.491329	-45.396347	1290.6528	-290.36423	110.61904	1420.4424	-191.37245	207.67389	1480.6239	-157.43613	340.90784	1549.2085	-82.985367	295.41116	1640.8479	-5.9102225	291.5253	1699.4399	69.546608	354.55701	1716.9978	48.835629	318.23386	1791.7881	84.137352	-128.24936	1349.0055	-197.61755	-249.37537	1160.3134	-204.54518	-276.96671	1065.5911	-263.65491	-325.23657	1026.708	-176.21994	-379.00143	897.81036	-119.2933	-406.36121	894.99243	-189.19902	-452.75626	877.77881	-119.05318	177.78696	932.2218	-72.447289	-97.289551	920.9024	-84.543694	101.63873	961.51355	-271.9614	-4.7154179	948.56525	-277.33682
2849	28.48	30.444164	1571.5103	-59.562943	-116.34144	1518.8813	-78.952614	34.439316	1588.1045	-183.64957	-85.681419	1559.1304	-213.96126	15.802812	1367.9286	-270.16916	61.452442	1131.1237	-268.7702	13.666893	1319.7166	-75.679504	53.678913	1141.8986	-11.215782	-45.856297	1289.4156	-290.3504	107.65244	1421.1671	-192.95055	200.46924	1485.1517	-159.61015	329.09631	1561.476	-85.916283	277.98123	1652.3376	-11.772483	269.73782	1712.483	62.207047	332.00238	1733.0382	42.01218	290.82947	1806.6915	75.222412	-129.70787	1347.0472	-197.72894	-245.93352	1154.4005	-204.62164	-270.08197	1059.4286	-264.04272	-316.86752	1017.0045	-177.7964	-365.78845	884.58331	-124.67435	-392.88434	882.81134	-194.79004	-438.80811	861.37152	-125.44463	177.96912	932.51416	-72.639374	-97.100212	920.96277	-84.75383	101.79467	961.69025	-272.07089	-4.481586	948.72229	-277.40518
2850	28.49	30.008379	1570.4537	-57.977222	-116.88491	1518.0103	-77.804321	33.865974	1587.9728	-181.4778	-85.792198	1559.5946	-212.33084	14.308966	1367.5182	-269.94147	61.954708	1131.6219	-268.63846	12.930048	1319.8507	-75.894096	54.102329	1142.3726	-10.941194	-46.290897	1288.0479	-290.36368	103.60612	1421.9736	-194.43227	193.26823	1489.374	-161.77878	317.11359	1572.764	-89.080551	260.47308	1662.6317	-17.564272	247.79149	1724.1003	54.484631	309.17664	1747.4387	34.858791	263.41412	1819.7421	65.55574	-131.16833	1344.9375	-197.97287	-242.08965	1148.847	-204.59258	-263.15549	1053.8239	-264.85141	-308.16086	1008.034	-179.53288	-352.76901	872.56836	-130.14217	-378.7569	871.56525	-200.68571	-424.74319	846.08783	-132.3405	178.16423	932.82745	-72.773827	-96.88266	921.0625	-84.883186	101.92806	961.88904	-272.16074	-4.2736235	948.88373	-277.46097
2851	28.5	29.560261	1569.0342	-54.996201	-117.32172	1517.1426	-76.638489	34.089241	1587.98	-179.13475	-86.035263	1560.4452	-211.21466	12.675972	1367.172	-269.94739	62.438465	1132.0979	-268.47894	12.049475	1319.9821	-76.09111	54.469666	1142.8345	-10.809113	-46.849739	1286.8174	-290.50253	99.870224	1422.6454	-195.12889	185.9641	1493.1865	-163.92911	304.98392	1583.17	-92.363319	242.90001	1671.8407	-24.037703	225.75316	1734.1772	46.434914	286.18491	1760.2185	27.417892	235.9445	1830.8383	55.273624	-132.69435	1342.7627	-198.08575	-237.93692	1143.6752	-204.7709	-256.25018	1048.7589	-266.04352	-299.42316	999.78351	-181.65543	-339.74487	861.69568	-135.7995	-364.90616	861.20654	-206.61653	-410.70596	831.94348	-139.4832	178.3521	933.11804	-72.996353	-96.489983	920.9129	-85.974564	102.04613	962.03961	-272.23889	-4.0709033	949.00519	-277.50549
